<mxfile host="Electron" modified="2024-04-09T07:29:14.579Z" agent="Mozilla/5.0 (Macintosh; Intel Mac OS X 10_15_7) AppleWebKit/537.36 (KHTML, like Gecko) draw.io/24.1.0 Chrome/120.0.6099.109 Electron/28.1.0 Safari/537.36" etag="IFJlnDaXlyknzOmQHNqP" version="24.1.0" type="device" pages="2">
  <diagram name="학사행정 시스템" id="NwElgDc0fMiD0ABQBN2N">
    <mxGraphModel dx="751" dy="545" grid="1" gridSize="10" guides="1" tooltips="1" connect="1" arrows="1" fold="1" page="1" pageScale="1" pageWidth="827" pageHeight="1169" math="0" shadow="0">
      <root>
        <mxCell id="0" />
        <mxCell id="1" parent="0" />
        <mxCell id="04_5gzLP9TnSTYWtFW9z-1" value="재학생" style="shape=umlActor;verticalLabelPosition=bottom;verticalAlign=top;html=1;outlineConnect=0;" vertex="1" parent="1">
          <mxGeometry x="170" y="240" width="30" height="60" as="geometry" />
        </mxCell>
        <mxCell id="04_5gzLP9TnSTYWtFW9z-4" value="학사행정 시스템" style="swimlane;whiteSpace=wrap;html=1;" vertex="1" parent="1">
          <mxGeometry x="370" y="160" width="274" height="400" as="geometry" />
        </mxCell>
        <mxCell id="04_5gzLP9TnSTYWtFW9z-6" value="학생관리" style="ellipse;whiteSpace=wrap;html=1;" vertex="1" parent="04_5gzLP9TnSTYWtFW9z-4">
          <mxGeometry x="160" y="80" width="80" height="40" as="geometry" />
        </mxCell>
        <mxCell id="04_5gzLP9TnSTYWtFW9z-9" value="수업 만족도&lt;div&gt;입력&lt;/div&gt;" style="ellipse;whiteSpace=wrap;html=1;" vertex="1" parent="04_5gzLP9TnSTYWtFW9z-4">
          <mxGeometry x="40" y="160" width="80" height="40" as="geometry" />
        </mxCell>
        <mxCell id="04_5gzLP9TnSTYWtFW9z-10" value="&lt;font style=&quot;font-size: 12px;&quot;&gt;수업 만족도&lt;/font&gt;&lt;div style=&quot;&quot;&gt;결과 조회&lt;/div&gt;" style="ellipse;whiteSpace=wrap;html=1;" vertex="1" parent="04_5gzLP9TnSTYWtFW9z-4">
          <mxGeometry x="40" y="80" width="80" height="40" as="geometry" />
        </mxCell>
        <mxCell id="04_5gzLP9TnSTYWtFW9z-11" value="수강신청 내역 조회" style="ellipse;whiteSpace=wrap;html=1;" vertex="1" parent="04_5gzLP9TnSTYWtFW9z-4">
          <mxGeometry x="40" y="240" width="80" height="40" as="geometry" />
        </mxCell>
        <mxCell id="04_5gzLP9TnSTYWtFW9z-12" value="수강신청" style="ellipse;whiteSpace=wrap;html=1;" vertex="1" parent="04_5gzLP9TnSTYWtFW9z-4">
          <mxGeometry x="160" y="280" width="80" height="40" as="geometry" />
        </mxCell>
        <mxCell id="04_5gzLP9TnSTYWtFW9z-13" value="" style="endArrow=classic;html=1;rounded=0;exitX=0;exitY=0;exitDx=0;exitDy=0;entryX=0.963;entryY=0.763;entryDx=0;entryDy=0;entryPerimeter=0;dashed=1;" edge="1" parent="04_5gzLP9TnSTYWtFW9z-4" source="04_5gzLP9TnSTYWtFW9z-12" target="04_5gzLP9TnSTYWtFW9z-11">
          <mxGeometry width="50" height="50" relative="1" as="geometry">
            <mxPoint x="160" y="270" as="sourcePoint" />
            <mxPoint x="210" y="220" as="targetPoint" />
          </mxGeometry>
        </mxCell>
        <mxCell id="04_5gzLP9TnSTYWtFW9z-14" value="&amp;lt;&amp;lt;extend&amp;gt;&amp;gt;" style="text;html=1;align=center;verticalAlign=middle;resizable=0;points=[];autosize=1;strokeColor=none;fillColor=none;" vertex="1" parent="04_5gzLP9TnSTYWtFW9z-4">
          <mxGeometry x="120" y="250" width="90" height="30" as="geometry" />
        </mxCell>
        <mxCell id="04_5gzLP9TnSTYWtFW9z-15" value="" style="endArrow=classic;html=1;rounded=0;exitX=0.5;exitY=1;exitDx=0;exitDy=0;entryX=0.5;entryY=0;entryDx=0;entryDy=0;dashed=1;" edge="1" parent="04_5gzLP9TnSTYWtFW9z-4" source="04_5gzLP9TnSTYWtFW9z-9" target="04_5gzLP9TnSTYWtFW9z-11">
          <mxGeometry width="50" height="50" relative="1" as="geometry">
            <mxPoint x="182" y="296" as="sourcePoint" />
            <mxPoint x="127" y="281" as="targetPoint" />
          </mxGeometry>
        </mxCell>
        <mxCell id="04_5gzLP9TnSTYWtFW9z-16" value="&amp;lt;&amp;lt;include&amp;gt;&amp;gt;" style="text;html=1;align=center;verticalAlign=middle;resizable=0;points=[];autosize=1;strokeColor=none;fillColor=none;" vertex="1" parent="04_5gzLP9TnSTYWtFW9z-4">
          <mxGeometry x="72" y="200" width="90" height="30" as="geometry" />
        </mxCell>
        <mxCell id="04_5gzLP9TnSTYWtFW9z-28" value="복학" style="ellipse;whiteSpace=wrap;html=1;" vertex="1" parent="04_5gzLP9TnSTYWtFW9z-4">
          <mxGeometry x="40" y="320" width="80" height="40" as="geometry" />
        </mxCell>
        <mxCell id="04_5gzLP9TnSTYWtFW9z-5" value="관리자" style="shape=umlActor;verticalLabelPosition=bottom;verticalAlign=top;html=1;outlineConnect=0;" vertex="1" parent="1">
          <mxGeometry x="740" y="240" width="30" height="60" as="geometry" />
        </mxCell>
        <mxCell id="04_5gzLP9TnSTYWtFW9z-7" value="" style="endArrow=none;html=1;rounded=0;entryX=0.5;entryY=0.5;entryDx=0;entryDy=0;entryPerimeter=0;exitX=1;exitY=0.5;exitDx=0;exitDy=0;" edge="1" parent="1" source="04_5gzLP9TnSTYWtFW9z-6" target="04_5gzLP9TnSTYWtFW9z-5">
          <mxGeometry width="50" height="50" relative="1" as="geometry">
            <mxPoint x="520" y="510" as="sourcePoint" />
            <mxPoint x="570" y="460" as="targetPoint" />
          </mxGeometry>
        </mxCell>
        <mxCell id="04_5gzLP9TnSTYWtFW9z-19" value="" style="endArrow=none;html=1;rounded=0;entryX=0;entryY=0.5;entryDx=0;entryDy=0;" edge="1" parent="1" source="04_5gzLP9TnSTYWtFW9z-1" target="04_5gzLP9TnSTYWtFW9z-10">
          <mxGeometry width="50" height="50" relative="1" as="geometry">
            <mxPoint x="370" y="360" as="sourcePoint" />
            <mxPoint x="380" y="280" as="targetPoint" />
          </mxGeometry>
        </mxCell>
        <mxCell id="04_5gzLP9TnSTYWtFW9z-20" value="" style="endArrow=none;html=1;rounded=0;entryX=0;entryY=0.5;entryDx=0;entryDy=0;" edge="1" parent="1" target="04_5gzLP9TnSTYWtFW9z-9">
          <mxGeometry width="50" height="50" relative="1" as="geometry">
            <mxPoint x="200" y="270" as="sourcePoint" />
            <mxPoint x="420" y="310" as="targetPoint" />
          </mxGeometry>
        </mxCell>
        <mxCell id="04_5gzLP9TnSTYWtFW9z-21" value="association" style="rounded=0;whiteSpace=wrap;html=1;fillColor=#fa6800;fontColor=#000000;strokeColor=#C73500;" vertex="1" parent="1">
          <mxGeometry x="250" y="180" width="80" height="20" as="geometry" />
        </mxCell>
        <mxCell id="04_5gzLP9TnSTYWtFW9z-22" value="" style="endArrow=none;dashed=1;html=1;dashPattern=1 3;strokeWidth=2;rounded=0;entryX=0.5;entryY=1;entryDx=0;entryDy=0;" edge="1" parent="1" target="04_5gzLP9TnSTYWtFW9z-21">
          <mxGeometry width="50" height="50" relative="1" as="geometry">
            <mxPoint x="330" y="310" as="sourcePoint" />
            <mxPoint x="470" y="290" as="targetPoint" />
          </mxGeometry>
        </mxCell>
        <mxCell id="04_5gzLP9TnSTYWtFW9z-23" value="" style="endArrow=none;dashed=1;html=1;dashPattern=1 3;strokeWidth=2;rounded=0;entryX=0.5;entryY=1;entryDx=0;entryDy=0;" edge="1" parent="1" target="04_5gzLP9TnSTYWtFW9z-21">
          <mxGeometry width="50" height="50" relative="1" as="geometry">
            <mxPoint x="260" y="260" as="sourcePoint" />
            <mxPoint x="270" y="230" as="targetPoint" />
          </mxGeometry>
        </mxCell>
        <mxCell id="04_5gzLP9TnSTYWtFW9z-24" value="actor" style="rounded=0;whiteSpace=wrap;html=1;fillColor=#fa6800;fontColor=#000000;strokeColor=#C73500;" vertex="1" parent="1">
          <mxGeometry x="145" y="210" width="80" height="20" as="geometry" />
        </mxCell>
        <mxCell id="04_5gzLP9TnSTYWtFW9z-25" value="학부생" style="shape=umlActor;verticalLabelPosition=bottom;verticalAlign=top;html=1;outlineConnect=0;" vertex="1" parent="1">
          <mxGeometry x="40" y="310" width="30" height="60" as="geometry" />
        </mxCell>
        <mxCell id="04_5gzLP9TnSTYWtFW9z-26" value="휴학생" style="shape=umlActor;verticalLabelPosition=bottom;verticalAlign=top;html=1;outlineConnect=0;" vertex="1" parent="1">
          <mxGeometry x="170" y="360" width="30" height="60" as="geometry" />
        </mxCell>
        <mxCell id="04_5gzLP9TnSTYWtFW9z-29" value="" style="endArrow=none;html=1;rounded=0;entryX=0;entryY=0.5;entryDx=0;entryDy=0;exitX=0.5;exitY=0.5;exitDx=0;exitDy=0;exitPerimeter=0;" edge="1" parent="1" source="04_5gzLP9TnSTYWtFW9z-26" target="04_5gzLP9TnSTYWtFW9z-28">
          <mxGeometry width="50" height="50" relative="1" as="geometry">
            <mxPoint x="210" y="280" as="sourcePoint" />
            <mxPoint x="420" y="350" as="targetPoint" />
          </mxGeometry>
        </mxCell>
        <mxCell id="04_5gzLP9TnSTYWtFW9z-30" value="" style="endArrow=none;html=1;rounded=0;entryX=0;entryY=0.5;entryDx=0;entryDy=0;exitX=0.5;exitY=0.5;exitDx=0;exitDy=0;exitPerimeter=0;" edge="1" parent="1" source="04_5gzLP9TnSTYWtFW9z-26" target="04_5gzLP9TnSTYWtFW9z-10">
          <mxGeometry width="50" height="50" relative="1" as="geometry">
            <mxPoint x="210" y="279" as="sourcePoint" />
            <mxPoint x="420" y="270" as="targetPoint" />
          </mxGeometry>
        </mxCell>
        <mxCell id="04_5gzLP9TnSTYWtFW9z-31" value="" style="shape=flexArrow;endArrow=classic;html=1;rounded=0;entryX=1;entryY=0.3333333333333333;entryDx=0;entryDy=0;entryPerimeter=0;" edge="1" parent="1" source="04_5gzLP9TnSTYWtFW9z-1" target="04_5gzLP9TnSTYWtFW9z-25">
          <mxGeometry width="50" height="50" relative="1" as="geometry">
            <mxPoint x="100" y="385" as="sourcePoint" />
            <mxPoint x="120" y="326.875" as="targetPoint" />
          </mxGeometry>
        </mxCell>
        <mxCell id="04_5gzLP9TnSTYWtFW9z-32" value="" style="shape=flexArrow;endArrow=classic;html=1;rounded=0;" edge="1" parent="1" source="04_5gzLP9TnSTYWtFW9z-26" target="04_5gzLP9TnSTYWtFW9z-25">
          <mxGeometry width="50" height="50" relative="1" as="geometry">
            <mxPoint x="180" y="288" as="sourcePoint" />
            <mxPoint x="120" y="349.375" as="targetPoint" />
          </mxGeometry>
        </mxCell>
        <mxCell id="04_5gzLP9TnSTYWtFW9z-34" value="generalization" style="rounded=0;whiteSpace=wrap;html=1;fillColor=#fa6800;fontColor=#000000;strokeColor=#C73500;" vertex="1" parent="1">
          <mxGeometry x="160" y="330" width="80" height="20" as="geometry" />
        </mxCell>
        <mxCell id="04_5gzLP9TnSTYWtFW9z-35" value="" style="endArrow=none;dashed=1;html=1;dashPattern=1 3;strokeWidth=2;rounded=0;exitX=0;exitY=0.5;exitDx=0;exitDy=0;" edge="1" parent="1" source="04_5gzLP9TnSTYWtFW9z-34">
          <mxGeometry width="50" height="50" relative="1" as="geometry">
            <mxPoint x="270" y="270" as="sourcePoint" />
            <mxPoint x="130" y="310" as="targetPoint" />
          </mxGeometry>
        </mxCell>
        <mxCell id="04_5gzLP9TnSTYWtFW9z-36" value="" style="endArrow=none;dashed=1;html=1;dashPattern=1 3;strokeWidth=2;rounded=0;exitX=0;exitY=0.5;exitDx=0;exitDy=0;" edge="1" parent="1" source="04_5gzLP9TnSTYWtFW9z-34">
          <mxGeometry width="50" height="50" relative="1" as="geometry">
            <mxPoint x="230" y="330" as="sourcePoint" />
            <mxPoint x="130" y="360" as="targetPoint" />
          </mxGeometry>
        </mxCell>
      </root>
    </mxGraphModel>
  </diagram>
  <diagram id="fWdjTTlqtvU5EoObXTZm" name="은행 창구 업무">
    <mxGraphModel dx="751" dy="545" grid="1" gridSize="10" guides="1" tooltips="1" connect="1" arrows="1" fold="1" page="1" pageScale="1" pageWidth="827" pageHeight="1169" math="0" shadow="0">
      <root>
        <mxCell id="0" />
        <mxCell id="1" parent="0" />
        <mxCell id="qFXarjozZ7dyb56G4YLT-1" value="일반 고객" style="shape=umlActor;verticalLabelPosition=bottom;verticalAlign=top;html=1;outlineConnect=0;" vertex="1" parent="1">
          <mxGeometry x="170" y="240" width="30" height="60" as="geometry" />
        </mxCell>
        <mxCell id="qFXarjozZ7dyb56G4YLT-2" value="은행 창구 업무" style="swimlane;whiteSpace=wrap;html=1;" vertex="1" parent="1">
          <mxGeometry x="370" y="160" width="274" height="400" as="geometry" />
        </mxCell>
        <mxCell id="qFXarjozZ7dyb56G4YLT-3" value="고객 관리" style="ellipse;whiteSpace=wrap;html=1;" vertex="1" parent="qFXarjozZ7dyb56G4YLT-2">
          <mxGeometry x="160" y="80" width="80" height="40" as="geometry" />
        </mxCell>
        <mxCell id="qFXarjozZ7dyb56G4YLT-4" value="이체" style="ellipse;whiteSpace=wrap;html=1;" vertex="1" parent="qFXarjozZ7dyb56G4YLT-2">
          <mxGeometry x="40" y="160" width="80" height="40" as="geometry" />
        </mxCell>
        <mxCell id="qFXarjozZ7dyb56G4YLT-5" value="출금 처리" style="ellipse;whiteSpace=wrap;html=1;" vertex="1" parent="qFXarjozZ7dyb56G4YLT-2">
          <mxGeometry x="40" y="80" width="80" height="40" as="geometry" />
        </mxCell>
        <mxCell id="qFXarjozZ7dyb56G4YLT-6" value="이체 계좌 조회" style="ellipse;whiteSpace=wrap;html=1;" vertex="1" parent="qFXarjozZ7dyb56G4YLT-2">
          <mxGeometry x="40" y="240" width="80" height="40" as="geometry" />
        </mxCell>
        <mxCell id="qFXarjozZ7dyb56G4YLT-7" value="계좌번호 입력" style="ellipse;whiteSpace=wrap;html=1;" vertex="1" parent="qFXarjozZ7dyb56G4YLT-2">
          <mxGeometry x="150" y="310" width="80" height="40" as="geometry" />
        </mxCell>
        <mxCell id="qFXarjozZ7dyb56G4YLT-8" value="" style="endArrow=classic;html=1;rounded=0;exitX=0;exitY=0;exitDx=0;exitDy=0;entryX=1;entryY=1;entryDx=0;entryDy=0;dashed=1;" edge="1" parent="qFXarjozZ7dyb56G4YLT-2" source="qFXarjozZ7dyb56G4YLT-7" target="qFXarjozZ7dyb56G4YLT-6">
          <mxGeometry width="50" height="50" relative="1" as="geometry">
            <mxPoint x="160" y="270" as="sourcePoint" />
            <mxPoint x="210" y="220" as="targetPoint" />
          </mxGeometry>
        </mxCell>
        <mxCell id="qFXarjozZ7dyb56G4YLT-9" value="&amp;lt;&amp;lt;extend&amp;gt;&amp;gt;" style="text;html=1;align=center;verticalAlign=middle;resizable=0;points=[];autosize=1;strokeColor=none;fillColor=none;" vertex="1" parent="qFXarjozZ7dyb56G4YLT-2">
          <mxGeometry x="120" y="270" width="90" height="30" as="geometry" />
        </mxCell>
        <mxCell id="qFXarjozZ7dyb56G4YLT-10" value="" style="endArrow=classic;html=1;rounded=0;exitX=0.5;exitY=1;exitDx=0;exitDy=0;entryX=0.5;entryY=0;entryDx=0;entryDy=0;dashed=1;" edge="1" parent="qFXarjozZ7dyb56G4YLT-2" source="qFXarjozZ7dyb56G4YLT-4" target="qFXarjozZ7dyb56G4YLT-6">
          <mxGeometry width="50" height="50" relative="1" as="geometry">
            <mxPoint x="182" y="296" as="sourcePoint" />
            <mxPoint x="127" y="281" as="targetPoint" />
          </mxGeometry>
        </mxCell>
        <mxCell id="qFXarjozZ7dyb56G4YLT-11" value="" style="endArrow=classic;html=1;rounded=0;exitX=0.5;exitY=0;exitDx=0;exitDy=0;entryX=0.5;entryY=1;entryDx=0;entryDy=0;dashed=1;" edge="1" parent="qFXarjozZ7dyb56G4YLT-2" source="qFXarjozZ7dyb56G4YLT-4" target="qFXarjozZ7dyb56G4YLT-5">
          <mxGeometry width="50" height="50" relative="1" as="geometry">
            <mxPoint x="192" y="306" as="sourcePoint" />
            <mxPoint x="137" y="291" as="targetPoint" />
          </mxGeometry>
        </mxCell>
        <mxCell id="qFXarjozZ7dyb56G4YLT-12" value="&amp;lt;&amp;lt;include&amp;gt;&amp;gt;" style="text;html=1;align=center;verticalAlign=middle;resizable=0;points=[];autosize=1;strokeColor=none;fillColor=none;" vertex="1" parent="qFXarjozZ7dyb56G4YLT-2">
          <mxGeometry x="80" y="130" width="90" height="30" as="geometry" />
        </mxCell>
        <mxCell id="qFXarjozZ7dyb56G4YLT-13" value="&amp;lt;&amp;lt;include&amp;gt;&amp;gt;" style="text;html=1;align=center;verticalAlign=middle;resizable=0;points=[];autosize=1;strokeColor=none;fillColor=none;" vertex="1" parent="qFXarjozZ7dyb56G4YLT-2">
          <mxGeometry x="80" y="200" width="90" height="30" as="geometry" />
        </mxCell>
        <mxCell id="qFXarjozZ7dyb56G4YLT-33" value="이체 수수료&lt;div&gt;납부&lt;/div&gt;" style="ellipse;whiteSpace=wrap;html=1;" vertex="1" parent="qFXarjozZ7dyb56G4YLT-2">
          <mxGeometry x="30" y="320" width="80" height="40" as="geometry" />
        </mxCell>
        <mxCell id="qFXarjozZ7dyb56G4YLT-15" value="관리자" style="shape=umlActor;verticalLabelPosition=bottom;verticalAlign=top;html=1;outlineConnect=0;" vertex="1" parent="1">
          <mxGeometry x="740" y="240" width="30" height="60" as="geometry" />
        </mxCell>
        <mxCell id="qFXarjozZ7dyb56G4YLT-16" value="" style="endArrow=none;html=1;rounded=0;entryX=0.5;entryY=0.5;entryDx=0;entryDy=0;entryPerimeter=0;exitX=1;exitY=0.5;exitDx=0;exitDy=0;" edge="1" parent="1" source="qFXarjozZ7dyb56G4YLT-3" target="qFXarjozZ7dyb56G4YLT-15">
          <mxGeometry width="50" height="50" relative="1" as="geometry">
            <mxPoint x="520" y="510" as="sourcePoint" />
            <mxPoint x="570" y="460" as="targetPoint" />
          </mxGeometry>
        </mxCell>
        <mxCell id="qFXarjozZ7dyb56G4YLT-18" value="" style="endArrow=none;html=1;rounded=0;entryX=0;entryY=0.5;entryDx=0;entryDy=0;" edge="1" parent="1" target="qFXarjozZ7dyb56G4YLT-4">
          <mxGeometry width="50" height="50" relative="1" as="geometry">
            <mxPoint x="200" y="270" as="sourcePoint" />
            <mxPoint x="420" y="310" as="targetPoint" />
          </mxGeometry>
        </mxCell>
        <mxCell id="qFXarjozZ7dyb56G4YLT-19" value="association" style="rounded=0;whiteSpace=wrap;html=1;fillColor=#fa6800;fontColor=#000000;strokeColor=#C73500;" vertex="1" parent="1">
          <mxGeometry x="250" y="180" width="80" height="20" as="geometry" />
        </mxCell>
        <mxCell id="qFXarjozZ7dyb56G4YLT-20" value="" style="endArrow=none;dashed=1;html=1;dashPattern=1 3;strokeWidth=2;rounded=0;entryX=0.5;entryY=1;entryDx=0;entryDy=0;" edge="1" parent="1" target="qFXarjozZ7dyb56G4YLT-19">
          <mxGeometry width="50" height="50" relative="1" as="geometry">
            <mxPoint x="340" y="350" as="sourcePoint" />
            <mxPoint x="470" y="290" as="targetPoint" />
          </mxGeometry>
        </mxCell>
        <mxCell id="qFXarjozZ7dyb56G4YLT-21" value="" style="endArrow=none;dashed=1;html=1;dashPattern=1 3;strokeWidth=2;rounded=0;entryX=0.5;entryY=1;entryDx=0;entryDy=0;" edge="1" parent="1" target="qFXarjozZ7dyb56G4YLT-19">
          <mxGeometry width="50" height="50" relative="1" as="geometry">
            <mxPoint x="250" y="280" as="sourcePoint" />
            <mxPoint x="270" y="230" as="targetPoint" />
          </mxGeometry>
        </mxCell>
        <mxCell id="qFXarjozZ7dyb56G4YLT-22" value="actor" style="rounded=0;whiteSpace=wrap;html=1;fillColor=#fa6800;fontColor=#000000;strokeColor=#C73500;" vertex="1" parent="1">
          <mxGeometry x="145" y="210" width="80" height="20" as="geometry" />
        </mxCell>
        <mxCell id="qFXarjozZ7dyb56G4YLT-23" value="고객" style="shape=umlActor;verticalLabelPosition=bottom;verticalAlign=top;html=1;outlineConnect=0;" vertex="1" parent="1">
          <mxGeometry x="40" y="310" width="30" height="60" as="geometry" />
        </mxCell>
        <mxCell id="qFXarjozZ7dyb56G4YLT-24" value="타행 고객" style="shape=umlActor;verticalLabelPosition=bottom;verticalAlign=top;html=1;outlineConnect=0;" vertex="1" parent="1">
          <mxGeometry x="170" y="360" width="30" height="60" as="geometry" />
        </mxCell>
        <mxCell id="qFXarjozZ7dyb56G4YLT-25" value="" style="endArrow=none;html=1;rounded=0;entryX=0;entryY=0.5;entryDx=0;entryDy=0;exitX=0.5;exitY=0.5;exitDx=0;exitDy=0;exitPerimeter=0;" edge="1" parent="1" source="qFXarjozZ7dyb56G4YLT-24" target="qFXarjozZ7dyb56G4YLT-33">
          <mxGeometry width="50" height="50" relative="1" as="geometry">
            <mxPoint x="210" y="280" as="sourcePoint" />
            <mxPoint x="410.0000000000041" y="500" as="targetPoint" />
          </mxGeometry>
        </mxCell>
        <mxCell id="qFXarjozZ7dyb56G4YLT-27" value="" style="shape=flexArrow;endArrow=classic;html=1;rounded=0;entryX=1;entryY=0.3333333333333333;entryDx=0;entryDy=0;entryPerimeter=0;" edge="1" parent="1" source="qFXarjozZ7dyb56G4YLT-1" target="qFXarjozZ7dyb56G4YLT-23">
          <mxGeometry width="50" height="50" relative="1" as="geometry">
            <mxPoint x="100" y="385" as="sourcePoint" />
            <mxPoint x="120" y="326.875" as="targetPoint" />
          </mxGeometry>
        </mxCell>
        <mxCell id="qFXarjozZ7dyb56G4YLT-28" value="" style="shape=flexArrow;endArrow=classic;html=1;rounded=0;" edge="1" parent="1" source="qFXarjozZ7dyb56G4YLT-24" target="qFXarjozZ7dyb56G4YLT-23">
          <mxGeometry width="50" height="50" relative="1" as="geometry">
            <mxPoint x="180" y="288" as="sourcePoint" />
            <mxPoint x="120" y="349.375" as="targetPoint" />
          </mxGeometry>
        </mxCell>
        <mxCell id="qFXarjozZ7dyb56G4YLT-29" value="generalization" style="rounded=0;whiteSpace=wrap;html=1;fillColor=#fa6800;fontColor=#000000;strokeColor=#C73500;" vertex="1" parent="1">
          <mxGeometry x="200" y="330" width="80" height="20" as="geometry" />
        </mxCell>
        <mxCell id="qFXarjozZ7dyb56G4YLT-30" value="" style="endArrow=none;dashed=1;html=1;dashPattern=1 3;strokeWidth=2;rounded=0;exitX=0;exitY=0.5;exitDx=0;exitDy=0;" edge="1" parent="1" source="qFXarjozZ7dyb56G4YLT-29">
          <mxGeometry width="50" height="50" relative="1" as="geometry">
            <mxPoint x="270" y="270" as="sourcePoint" />
            <mxPoint x="130" y="310" as="targetPoint" />
          </mxGeometry>
        </mxCell>
        <mxCell id="qFXarjozZ7dyb56G4YLT-31" value="" style="endArrow=none;dashed=1;html=1;dashPattern=1 3;strokeWidth=2;rounded=0;exitX=0;exitY=0.5;exitDx=0;exitDy=0;" edge="1" parent="1" source="qFXarjozZ7dyb56G4YLT-29">
          <mxGeometry width="50" height="50" relative="1" as="geometry">
            <mxPoint x="230" y="330" as="sourcePoint" />
            <mxPoint x="130" y="360" as="targetPoint" />
          </mxGeometry>
        </mxCell>
        <mxCell id="qFXarjozZ7dyb56G4YLT-34" value="" style="endArrow=none;html=1;rounded=0;entryX=0;entryY=0.5;entryDx=0;entryDy=0;exitX=0.5;exitY=0.5;exitDx=0;exitDy=0;exitPerimeter=0;" edge="1" parent="1" source="qFXarjozZ7dyb56G4YLT-24" target="qFXarjozZ7dyb56G4YLT-4">
          <mxGeometry width="50" height="50" relative="1" as="geometry">
            <mxPoint x="195" y="400" as="sourcePoint" />
            <mxPoint x="420" y="430" as="targetPoint" />
          </mxGeometry>
        </mxCell>
      </root>
    </mxGraphModel>
  </diagram>
</mxfile>
